<?xml version="1.0" encoding="UTF-8" standalone="no"?>
<svg width="20px" height="20px" viewBox="0 0 20 20" version="1.1" xmlns="http://www.w3.org/2000/svg" xmlns:xlink="http://www.w3.org/1999/xlink" xmlns:sketch="http://www.bohemiancoding.com/sketch/ns">
    <title>ts_icon_arrow_large_left</title>
    <defs></defs>
    <g id="Page-1" stroke="none" stroke-width="1" fill="none" fill-rule="evenodd" sketch:type="MSPage">
        <g id="ts_icon_arrow_large_left" sketch:type="MSArtboardGroup" fill="#000000">
            <path d="M8.4700009,4.22000004 L3.22000004,9.4700009 C3.07000001,9.62000092 3,9.81000095 3,10.000001 C3,10.200001 3.07000001,10.380001 3.22000004,10.5300011 L8.4700009,15.7800019 C8.62000092,15.930002 8.81000095,16.000002 9.00000098,16.000002 C9.19000101,16.000002 9.38000105,15.920002 9.53000107,15.7800019 C9.68000109,15.6300019 9.75000111,15.4400019 9.75000111,15.2500018 C9.75000111,15.0500018 9.68000109,14.8700018 9.53000107,14.7200018 L5.55000042,10.7500011 L16.2500022,10.7500011 C16.6600022,10.7500011 17.0000023,10.4200011 17.0000023,10.000001 C17.0000023,9.59000092 16.6600022,9.25000086 16.2500022,9.25000086 L5.55000042,9.25000086 L9.53000107,5.28000021 C9.68000109,5.13000019 9.75000111,4.94000015 9.75000111,4.75000012 C9.75000111,4.56000009 9.68000109,4.36000006 9.53000107,4.22000004 C9.38000105,4.07000001 9.19000101,4 9.00000098,4 C8.81000095,4 8.62000092,4.07000001 8.4700009,4.22000004 Z" id="left-arrow-large" sketch:type="MSShapeGroup"></path>
        </g>
    </g>
</svg>
