<?xml version="1.0" encoding="UTF-8" standalone="no"?>
<svg width="20px" height="20px" viewBox="0 0 20 20" version="1.1" xmlns="http://www.w3.org/2000/svg" xmlns:xlink="http://www.w3.org/1999/xlink" xmlns:sketch="http://www.bohemiancoding.com/sketch/ns">
    <defs></defs>
    <g id="Page-1" stroke="none" stroke-width="1" fill="none" fill-rule="evenodd" sketch:type="MSPage">
        <g id="ts_icon_times_circle" sketch:type="MSArtboardGroup" fill="#000000">
            <path d="M10.0000013,2 C5.58000059,2 2,5.58000059 2,10.0000013 C2,14.420002 5.58000059,18.0000026 10.0000013,18.0000026 C14.420002,18.0000026 18.0000026,14.420002 18.0000026,10.0000013 C18.0000026,5.58000059 14.420002,2 10.0000013,2 L10.0000013,2 Z M10.0000013,3.50000025 C13.5900019,3.50000025 16.5000024,6.41000072 16.5000024,10.0000013 C16.5000024,13.5900019 13.5900019,16.5000024 10.0000013,16.5000024 C6.41000072,16.5000024 3.50000025,13.5900019 3.50000025,10.0000013 C3.50000025,6.41000072 6.41000072,3.50000025 10.0000013,3.50000025 L10.0000013,3.50000025 Z M12.5000017,6.75000078 C12.3000017,6.75000078 12.1100017,6.82000079 11.9600016,6.97000081 L10.0000013,8.95000114 L8.03000099,6.97000081 C7.89000097,6.82000079 7.69000093,6.75000078 7.5000009,6.75000078 C7.31000087,6.75000078 7.12000084,6.82000079 6.97000081,6.97000081 C6.83000079,7.11000084 6.75000078,7.31000087 6.75000078,7.5000009 C6.75000078,7.69000093 6.82000079,7.88000096 6.97000081,8.03000099 L8.95000114,10.0000013 L6.97000081,11.9700016 C6.83000079,12.1100017 6.75000078,12.3100017 6.75000078,12.5000017 C6.75000078,12.6900018 6.83000079,12.8800018 6.97000081,13.0300018 C7.12000084,13.1700018 7.31000087,13.2500018 7.5000009,13.2500018 C7.69000093,13.2500018 7.89000097,13.1700018 8.03000099,13.0300018 L10.0000013,11.0500015 L11.9600016,13.0300018 C12.1000017,13.1800018 12.3000017,13.2500018 12.5000017,13.2500018 C12.6900018,13.2500018 12.8900018,13.1700018 13.0300018,13.0300018 C13.1800018,12.8800018 13.2500018,12.6900018 13.2500018,12.5000017 C13.2500018,12.3100017 13.1800018,12.1200017 13.0300018,11.9700016 L11.0500015,10.0000013 L13.0300018,8.03000099 C13.1800018,7.88000096 13.2500018,7.69000093 13.2500018,7.5000009 C13.2500018,7.31000087 13.1800018,7.11000084 13.0300018,6.97000081 C12.8900018,6.82000079 12.6900018,6.75000078 12.5000017,6.75000078 L12.5000017,6.75000078 Z" id="times-circle" sketch:type="MSShapeGroup"></path>
        </g>
    </g>
</svg>
